<svg id="Layer_1" height="312" viewBox="0 0 512 512" width="512" xmlns="http://www.w3.org/2000/svg" data-name="Layer 1"><path d="m284.45 327.93-56.17.17c-.25 0-.51 0-.76-.01v20.27h56.96v-20.1z" fill="#86aabc"/><path d="m212.43 348.36h87.14a12.4 12.4 0 0 1 12.4 12.4v48.99a12.4 12.4 0 0 1 -12.4 12.4h-87.14a12.4 12.4 0 0 1 -12.4-12.4v-48.991a12.4 12.4 0 0 1 12.4-12.399z" fill="#fb6771"/><path d="m429.83 243.34-63.27 1.99a145.8 145.8 0 0 1 66.4 164.99l-2.28 8.13h14.64l9.11-21.73c21.98-52.42 11.75-112.21-24.6-153.38z" fill="#7e7ea8"/><path d="m123.64 243.34a69.148 69.148 0 0 1 26.04 5.08 145.823 145.823 0 0 0 -66.4 165l2.28 8.13h-14.64l-9.11-21.73c-22.57-53.81-10.32-115.22 28.39-156.48z" fill="#7e7ea8"/><path d="m19.45 219.14a50.159 50.159 0 0 0 42.95 24.2h61.24a69.213 69.213 0 0 1 62.23 38.89l13.57 27.84a32.09 32.09 0 0 0 28.08 18.02l56.93-.16a32.087 32.087 0 0 0 26.92-20.9l6.67-18.24a69.228 69.228 0 0 1 48.52-43.46l63.27-1.99h19.77a50.208 50.208 0 0 0 42.95-24.2z" fill="#b3d1e7"/><path d="m12.2 193.14a49.982 49.982 0 0 0 7.25 26h473.1a49.982 49.982 0 0 0 7.25-26z" fill="#eadf53"/><path d="m399 124.72h-32.99v9.87a12.4 12.4 0 0 0 12.39 12.4h42.83a12.4 12.4 0 0 0 12.39-12.4v-9.87z" fill="#3090fc"/><path d="m110 124.72h-31.62v9.87a12.4 12.4 0 0 0 12.39 12.4h42.83a12.4 12.4 0 0 0 12.39-12.4v-9.87z" fill="#3090fc"/><path d="m388.36 146.99h22.91v46.15h-22.91z" fill="#6d7486"/><path d="m100.73 146.99h22.91v46.15h-22.91z" fill="#6d7486"/><circle cx="256" cy="385.26" fill="#3090fc" r="21.72"/><path d="m230.03 409.75v-48.98a12.406 12.406 0 0 1 12.4-12.41h-30a12.406 12.406 0 0 0 -12.4 12.41v48.98a12.4 12.4 0 0 0 12.4 12.4h30a12.4 12.4 0 0 1 -12.4-12.4z" fill="#dd5e6a"/><path d="m49.45 219.14h-30a50.159 50.159 0 0 0 42.95 24.2h30a50.159 50.159 0 0 1 -42.95-24.2z" fill="#9bbacc"/><path d="m229.44 310.07-13.57-27.84a69.213 69.213 0 0 0 -62.23-38.89h-30a69.213 69.213 0 0 1 62.23 38.89l13.57 27.84a32.09 32.09 0 0 0 28.08 18.02l28.619-.08a32.081 32.081 0 0 1 -26.699-17.94z" fill="#9bbacc"/><path d="m12.2 193.14a49.982 49.982 0 0 0 7.25 26h30a49.982 49.982 0 0 1 -7.25-26z" fill="#c9bc47"/><g fill="#284268"><path d="m233 261h45a6 6 0 0 0 0-12h-45a6 6 0 0 0 0 12z"/><path d="m233 283h45a6 6 0 0 0 0-12h-45a6 6 0 0 0 0 12z"/><path d="m233 306h45a6 6 0 0 0 0-12h-45a6 6 0 0 0 0 12z"/><path d="m170.609 171a6 6 0 0 0 6 6h99.229a6 6 0 0 0 0-12h-99.229a6 6 0 0 0 -6 6z"/><path d="m149.5 165a6 6 0 1 0 0 12h5.837a6 6 0 0 0 0-12z"/><path d="m256 412.977a27.72 27.72 0 1 0 -27.72-27.72 27.751 27.751 0 0 0 27.72 27.72zm0-43.439a15.72 15.72 0 1 1 -15.72 15.719 15.737 15.737 0 0 1 15.72-15.719z"/><path d="m499.8 187h-82.8v-34h4.226c10.143 0 18.774-8.263 18.774-18.407v-9.877c0-3.313-3.064-5.716-6.378-5.716h-28.622v-12h85.812a6 6 0 0 0 0-12h-85.812v-5a6 6 0 0 0 -12 0v5h-84.183a6 6 0 0 0 0 12h84.183v12h-26.993a5.77 5.77 0 0 0 -6.007 5.716v9.877a18.432 18.432 0 0 0 18.4 18.407h3.6v34h-252v-34h3.6a18.432 18.432 0 0 0 18.4-18.407v-9.877a5.77 5.77 0 0 0 -6.007-5.716h-26.993v-12h87.183a6 6 0 0 0 0-12h-87.183v-5a6 6 0 0 0 -12 0v5h-84.878a6 6 0 0 0 0 12h84.878v12h-28.622c-3.314 0-6.378 2.4-6.378 5.716v9.877c0 10.144 8.631 18.407 18.774 18.407h4.226v34h-82.8a5.916 5.916 0 0 0 -6 5.9 56.179 56.179 0 0 0 56.2 56.1h14.77c-33.942 44-42.308 101.9-20.895 152.973l9.109 22.035a6.3 6.3 0 0 0 5.533 3.992h14.641a6.335 6.335 0 0 0 5.777-7.959l-2.277-8.181a139.918 139.918 0 0 1 61.012-156.628 63.442 63.442 0 0 1 30.4 29.639l13.576 27.791a38.242 38.242 0 0 0 27.954 20.789v8.549h-9.566c-10.148 0-18.434 8.619-18.434 18.766v48.983a18.321 18.321 0 0 0 18.434 18.251h87.132a18.321 18.321 0 0 0 18.434-18.251v-48.983c0-10.147-8.286-18.766-18.434-18.766h-9.566v-9.027a38.149 38.149 0 0 0 27-23.929l6.67-18.217a63.447 63.447 0 0 1 42.011-39.039 139.886 139.886 0 0 1 61.5 156.91l-2.279 8.126a5.546 5.546 0 0 0 1 5.023 5.8 5.8 0 0 0 4.781 2.153h14.64a5.8 5.8 0 0 0 5.533-3.456l9.109-21.781a153.648 153.648 0 0 0 -17.609-149.763h7.244a56.179 56.179 0 0 0 56.2-56.1 5.916 5.916 0 0 0 -6-5.9zm-121.4-46a6.418 6.418 0 0 1 -6.4-6.407v-3.593h56v3.593a6.746 6.746 0 0 1 -6.774 6.407zm26.6 12v34h-11v-34zm-314.226-12a6.746 6.746 0 0 1 -6.774-6.407v-3.593h56v3.593a6.418 6.418 0 0 1 -6.4 6.407zm27.226 12v34h-11v-34zm-40.5 262.27.142.73h-2.735l-7.565-18.44c-20.977-50.031-10.919-107.56 25.52-148.56h30.781a62.431 62.431 0 0 1 11.859 1.434 152.323 152.323 0 0 0 -58.002 164.836zm222.1-61.27a6.4 6.4 0 0 1 6.4 6.4v49.2a6.4 6.4 0 0 1 -6.4 6.4h-87.2a6.4 6.4 0 0 1 -6.4-6.4v-49.2a6.4 6.4 0 0 1 6.4-6.4zm-65.6-12v-8h44v8zm214.9 52.011-7.567 17.989h-2.733l.141-.45c17.074-60.908-5.547-124.55-55.333-162.55h43.649a141.052 141.052 0 0 1 21.843 145.011zm40.172-181.011h-324.072a6 6 0 0 0 0 12h315.207a43.76 43.76 0 0 1 -30.607 12h-66.551a75.632 75.632 0 0 0 -70.649 49.561l-6.67 18.277a26.2 26.2 0 0 1 -24.496 17.162h-52.955a26.2 26.2 0 0 1 -23.444-14.6l-13.576-28a75.819 75.819 0 0 0 -67.616-42.4h-61.243a43.76 43.76 0 0 1 -30.606-12h93.206a6 6 0 0 0 0-12h-102.072a44.036 44.036 0 0 1 -4.328-14h474.8a44.036 44.036 0 0 1 -4.328 14z"/></g></svg>
